<svg xmlns="http://www.w3.org/2000/svg" xmlns:xlink="http://www.w3.org/1999/xlink" width="2245" zoomAndPan="magnify" viewBox="0 0 1683.75 1190.250009" height="1587" preserveAspectRatio="xMidYMid meet" version="1.0"><defs><clipPath id="id1"><path d="M 0.40625 0 L 1683.09375 0 L 1683.09375 1189.5 L 0.40625 1189.5 Z M 0.40625 0 " clip-rule="nonzero"/></clipPath></defs><g clip-path="url(#id1)"><path fill="#ffffff" d="M 0.40625 0 L 1683.34375 0 L 1683.34375 1197.171875 L 0.40625 1197.171875 Z M 0.40625 0 " fill-opacity="1" fill-rule="nonzero"/><path fill="#ffde59" d="M 0.40625 0 L 1683.34375 0 L 1683.34375 1189.675781 L 0.40625 1189.675781 Z M 0.40625 0 " fill-opacity="1" fill-rule="nonzero"/><path fill="#ffffff" d="M 0.40625 0 L 1683.34375 0 L 1683.34375 1189.675781 L 0.40625 1189.675781 Z M 0.40625 0 " fill-opacity="1" fill-rule="nonzero"/><path fill="#ffde59" d="M 0.40625 0 L 1683.34375 0 L 1683.34375 1189.675781 L 0.40625 1189.675781 Z M 0.40625 0 " fill-opacity="1" fill-rule="nonzero"/></g><path fill="#000000" d="M 756.5 728.25 L 738.078125 747.144531 L 760.679688 760.773438 C 771.070312 767.605469 781.972656 773.492188 793.386719 778.433594 C 804.796875 783.375 816.546875 787.296875 828.640625 790.199219 L 833.59375 790.199219 C 838.535156 789.394531 843.425781 788.34375 848.265625 787.050781 C 853.101562 785.761719 857.863281 784.234375 862.550781 782.46875 C 867.238281 780.707031 871.828125 778.714844 876.316406 776.496094 C 880.804688 774.277344 885.175781 771.839844 889.421875 769.1875 C 893.671875 766.535156 897.777344 763.679688 901.742188 760.621094 C 905.707031 757.5625 909.511719 754.3125 913.15625 750.875 C 916.800781 747.441406 920.265625 743.832031 923.550781 740.050781 C 926.835938 736.269531 929.929688 732.335938 932.824219 728.25 L 942.578125 730.726562 L 967.964844 795.464844 C 968.347656 796.429688 968.800781 797.359375 969.324219 798.253906 C 969.847656 799.152344 970.433594 800.003906 971.082031 800.8125 C 971.730469 801.621094 972.4375 802.378906 973.199219 803.082031 C 973.960938 803.785156 974.769531 804.429688 975.625 805.011719 C 976.484375 805.59375 977.378906 806.113281 978.3125 806.5625 C 979.246094 807.011719 980.210938 807.390625 981.199219 807.695312 C 982.191406 808.003906 983.199219 808.234375 984.222656 808.390625 C 985.25 808.546875 986.28125 808.628906 987.316406 808.628906 C 990.050781 808.644531 992.683594 808.125 995.210938 807.082031 C 995.84375 806.828125 996.460938 806.539062 997.066406 806.226562 C 997.671875 805.910156 998.257812 805.566406 998.832031 805.191406 C 999.402344 804.816406 999.953125 804.417969 1000.484375 803.992188 C 1001.015625 803.5625 1001.527344 803.109375 1002.011719 802.632812 C 1002.5 802.15625 1002.964844 801.65625 1003.402344 801.132812 C 1003.839844 800.609375 1004.253906 800.070312 1004.636719 799.503906 C 1005.023438 798.941406 1005.378906 798.363281 1005.710938 797.765625 C 1006.039062 797.167969 1006.335938 796.554688 1006.605469 795.925781 C 1006.875 795.300781 1007.113281 794.660156 1007.316406 794.011719 C 1007.523438 793.359375 1007.699219 792.699219 1007.839844 792.03125 C 1007.980469 791.367188 1008.089844 790.691406 1008.164062 790.015625 C 1008.242188 789.335938 1008.285156 788.65625 1008.292969 787.972656 C 1008.300781 787.292969 1008.277344 786.609375 1008.222656 785.929688 C 1008.164062 785.25 1008.074219 784.574219 1007.949219 783.902344 C 1007.824219 783.234375 1007.671875 782.570312 1007.480469 781.914062 C 1007.292969 781.257812 1007.074219 780.613281 1006.820312 779.976562 L 973.230469 695.882812 L 954.808594 691.234375 C 960.628906 678.925781 965.015625 666.121094 967.964844 652.824219 L 1023.078125 652.824219 L 1043.046875 623.246094 C 1043.429688 622.675781 1043.785156 622.089844 1044.109375 621.488281 C 1044.4375 620.886719 1044.734375 620.265625 1044.996094 619.636719 C 1045.261719 619.003906 1045.496094 618.359375 1045.699219 617.703125 C 1045.902344 617.050781 1046.070312 616.386719 1046.207031 615.714844 C 1046.34375 615.042969 1046.449219 614.367188 1046.519531 613.683594 C 1046.589844 613 1046.625 612.316406 1046.628906 611.632812 C 1046.632812 610.945312 1046.601562 610.261719 1046.539062 609.582031 C 1046.472656 608.898438 1046.375 608.21875 1046.246094 607.546875 C 1046.117188 606.875 1045.953125 606.210938 1045.757812 605.550781 C 1045.558594 604.894531 1045.332031 604.25 1045.074219 603.613281 C 1044.8125 602.980469 1044.523438 602.359375 1044.203125 601.753906 C 1043.882812 601.148438 1043.535156 600.558594 1043.15625 599.988281 C 1042.777344 599.417969 1042.371094 598.863281 1041.9375 598.332031 C 1041.507812 597.800781 1041.050781 597.292969 1040.566406 596.804688 C 1040.085938 596.316406 1039.578125 595.855469 1039.050781 595.417969 C 1038.523438 594.980469 1037.976562 594.570312 1037.40625 594.1875 C 1036.839844 593.804688 1036.253906 593.449219 1035.652344 593.125 C 1035.046875 592.800781 1034.429688 592.503906 1033.796875 592.238281 C 1033.164062 591.972656 1032.523438 591.742188 1031.867188 591.539062 C 1031.210938 591.339844 1030.550781 591.167969 1029.878906 591.03125 C 1029.207031 590.898438 1028.527344 590.792969 1027.847656 590.722656 C 1027.164062 590.652344 1026.480469 590.617188 1025.796875 590.617188 C 1025.113281 590.613281 1024.429688 590.644531 1023.746094 590.707031 C 1023.0625 590.773438 1022.386719 590.871094 1021.714844 591.003906 C 1021.042969 591.132812 1020.375 591.296875 1019.71875 591.496094 C 1019.0625 591.691406 1018.417969 591.917969 1017.785156 592.179688 C 1017.152344 592.441406 1016.53125 592.730469 1015.925781 593.050781 C 1015.320312 593.371094 1014.730469 593.722656 1014.160156 594.101562 C 1013.589844 594.480469 1013.039062 594.886719 1012.507812 595.320312 C 1011.976562 595.753906 1011.46875 596.210938 1010.980469 596.695312 C 1010.496094 597.179688 1010.035156 597.683594 1009.597656 598.210938 C 1009.160156 598.742188 1008.753906 599.289062 1008.371094 599.859375 L 1000.9375 611.007812 L 969.976562 611.007812 C 969.433594 600.464844 967.625 590.136719 964.558594 580.035156 L 993.816406 572.753906 L 1019.824219 502.132812 C 1020.015625 501.5 1020.179688 500.863281 1020.308594 500.214844 C 1020.441406 499.570312 1020.539062 498.917969 1020.609375 498.261719 C 1020.679688 497.605469 1020.71875 496.949219 1020.722656 496.289062 C 1020.730469 495.628906 1020.707031 494.972656 1020.652344 494.3125 C 1020.597656 493.65625 1020.511719 493.003906 1020.394531 492.355469 C 1020.277344 491.703125 1020.128906 491.0625 1019.953125 490.425781 C 1019.773438 489.792969 1019.566406 489.167969 1019.332031 488.550781 C 1019.09375 487.9375 1018.828125 487.332031 1018.535156 486.742188 C 1018.242188 486.152344 1017.917969 485.578125 1017.570312 485.015625 C 1017.222656 484.457031 1016.847656 483.914062 1016.449219 483.390625 C 1016.050781 482.863281 1015.625 482.359375 1015.179688 481.875 C 1014.730469 481.390625 1014.261719 480.929688 1013.773438 480.488281 C 1013.28125 480.046875 1012.769531 479.632812 1012.238281 479.242188 C 1011.710938 478.847656 1011.160156 478.484375 1010.597656 478.144531 C 1010.03125 477.804688 1009.453125 477.492188 1008.855469 477.207031 C 1008.261719 476.921875 1007.65625 476.664062 1007.039062 476.4375 C 1006.417969 476.210938 1005.789062 476.011719 1005.152344 475.84375 C 1004.515625 475.675781 1003.871094 475.539062 1003.21875 475.429688 C 1002.570312 475.324219 1001.914062 475.246094 1001.257812 475.203125 C 1000.601562 475.15625 999.941406 475.144531 999.28125 475.160156 C 998.625 475.175781 997.96875 475.226562 997.3125 475.304688 C 996.65625 475.382812 996.007812 475.496094 995.363281 475.636719 C 994.71875 475.777344 994.085938 475.945312 993.457031 476.148438 C 992.828125 476.347656 992.210938 476.578125 991.605469 476.839844 C 991 477.097656 990.40625 477.386719 989.828125 477.703125 C 989.25 478.015625 988.6875 478.359375 988.140625 478.726562 C 987.59375 479.097656 987.066406 479.492188 986.554688 479.910156 C 986.046875 480.328125 985.558594 480.769531 985.089844 481.234375 C 984.625 481.699219 984.179688 482.1875 983.757812 482.695312 C 983.335938 483.199219 982.9375 483.726562 982.566406 484.273438 C 982.195312 484.816406 981.851562 485.378906 981.53125 485.953125 C 981.210938 486.53125 980.921875 487.125 980.660156 487.726562 L 962.238281 537.597656 L 943.351562 542.246094 L 916.105469 569.191406 C 894.121094 588.863281 850.621094 632.847656 756.5 728.25 Z M 756.5 728.25 " fill-opacity="1" fill-rule="nonzero"/><path fill="#000000" d="M 1081.4375 425.003906 C 1083.628906 428.445312 1085.742188 431.929688 1087.78125 435.460938 C 1089.824219 438.988281 1091.789062 442.5625 1093.675781 446.175781 C 1095.566406 449.789062 1097.378906 453.441406 1099.109375 457.132812 C 1100.84375 460.820312 1102.5 464.546875 1104.074219 468.308594 C 1105.652344 472.070312 1107.144531 475.863281 1108.558594 479.6875 C 1109.972656 483.511719 1111.304688 487.363281 1112.558594 491.246094 C 1113.808594 495.125 1114.976562 499.03125 1116.058594 502.964844 C 1117.144531 506.894531 1118.144531 510.847656 1119.0625 514.820312 C 1119.976562 518.792969 1120.808594 522.785156 1121.558594 526.792969 C 1122.304688 530.804688 1122.964844 534.824219 1123.542969 538.863281 C 1124.117188 542.898438 1124.605469 546.949219 1125.011719 551.003906 C 1125.414062 555.0625 1125.734375 559.128906 1125.964844 563.199219 C 1126.195312 567.269531 1126.339844 571.34375 1126.398438 575.421875 C 1126.457031 579.5 1126.429688 583.578125 1126.3125 587.652344 C 1126.199219 591.730469 1125.996094 595.800781 1125.707031 599.871094 C 1125.421875 603.9375 1125.046875 607.996094 1124.585938 612.046875 C 1124.125 616.101562 1123.578125 620.140625 1122.945312 624.167969 C 1122.3125 628.199219 1121.597656 632.210938 1120.792969 636.210938 C 1119.988281 640.207031 1119.101562 644.1875 1118.128906 648.148438 C 1117.160156 652.105469 1116.101562 656.042969 1114.964844 659.960938 C 1113.824219 663.875 1112.601562 667.765625 1111.296875 671.628906 C 1109.992188 675.492188 1108.605469 679.324219 1107.140625 683.128906 C 1105.671875 686.933594 1104.125 690.707031 1102.496094 694.445312 C 1100.867188 698.183594 1099.164062 701.886719 1097.378906 705.550781 C 1095.59375 709.21875 1093.730469 712.84375 1091.789062 716.429688 C 1089.851562 720.019531 1087.835938 723.5625 1085.746094 727.0625 C 1083.65625 730.566406 1081.496094 734.019531 1079.257812 737.429688 C 1077.019531 740.839844 1074.710938 744.199219 1072.332031 747.507812 C 1069.953125 750.820312 1067.503906 754.078125 1064.988281 757.285156 C 1062.46875 760.492188 1059.882812 763.644531 1057.234375 766.742188 C 1054.582031 769.839844 1051.863281 772.878906 1049.082031 775.859375 C 1046.300781 778.839844 1043.460938 781.761719 1040.554688 784.621094 C 1037.648438 787.480469 1034.683594 790.28125 1031.660156 793.015625 C 1028.636719 795.75 1025.554688 798.417969 1022.417969 801.019531 C 1019.28125 803.625 1016.089844 806.160156 1012.84375 808.625 C 1009.597656 811.09375 1006.304688 813.492188 1002.957031 815.820312 C 999.609375 818.148438 996.214844 820.402344 992.769531 822.585938 C 989.328125 824.769531 985.839844 826.875 982.308594 828.910156 C 978.773438 830.945312 975.199219 832.90625 971.585938 834.785156 C 967.96875 836.667969 964.316406 838.472656 960.621094 840.203125 C 956.929688 841.929688 953.203125 843.578125 949.441406 845.144531 C 945.679688 846.714844 941.882812 848.203125 938.058594 849.609375 C 934.234375 851.015625 930.378906 852.34375 926.496094 853.585938 C 922.613281 854.828125 918.707031 855.988281 914.777344 857.066406 C 910.84375 858.144531 906.894531 859.136719 902.917969 860.046875 C 898.945312 860.953125 894.953125 861.777344 890.945312 862.519531 C 886.9375 863.257812 882.914062 863.910156 878.878906 864.480469 C 874.84375 865.046875 870.796875 865.53125 866.738281 865.925781 C 862.683594 866.324219 858.617188 866.632812 854.550781 866.855469 C 850.480469 867.078125 846.40625 867.214844 842.332031 867.265625 C 838.253906 867.316406 834.179688 867.277344 830.105469 867.15625 C 826.03125 867.03125 821.960938 866.824219 817.894531 866.527344 C 813.832031 866.230469 809.773438 865.847656 805.722656 865.378906 C 801.675781 864.910156 797.636719 864.355469 793.613281 863.714844 C 789.585938 863.074219 785.578125 862.347656 781.582031 861.535156 C 777.585938 860.726562 773.613281 859.828125 769.65625 858.847656 C 765.699219 857.871094 761.765625 856.804688 757.851562 855.65625 C 753.941406 854.511719 750.058594 853.28125 746.199219 851.96875 C 742.339844 850.652344 738.507812 849.261719 734.710938 847.785156 C 730.910156 846.308594 727.140625 844.753906 723.410156 843.117188 C 719.675781 841.480469 715.976562 839.765625 712.316406 837.972656 C 708.65625 836.179688 705.035156 834.308594 701.453125 832.363281 C 697.871094 830.414062 694.332031 828.390625 690.839844 826.292969 C 687.34375 824.195312 683.894531 822.027344 680.492188 819.78125 L 658.351562 854.628906 C 662.269531 857.195312 666.242188 859.675781 670.261719 862.070312 C 674.285156 864.46875 678.359375 866.777344 682.480469 869 C 686.601562 871.226562 690.769531 873.359375 694.980469 875.40625 C 699.191406 877.449219 703.445312 879.40625 707.742188 881.269531 C 712.039062 883.136719 716.371094 884.90625 720.742188 886.585938 C 725.113281 888.265625 729.515625 889.851562 733.953125 891.34375 C 738.394531 892.835938 742.863281 894.234375 747.359375 895.535156 C 751.855469 896.839844 756.378906 898.042969 760.929688 899.152344 C 765.480469 900.261719 770.050781 901.273438 774.640625 902.1875 C 779.234375 903.105469 783.84375 903.917969 788.46875 904.636719 C 793.097656 905.355469 797.738281 905.976562 802.390625 906.496094 C 807.042969 907.015625 811.707031 907.4375 816.378906 907.757812 C 821.046875 908.082031 825.722656 908.304688 830.40625 908.425781 C 835.085938 908.550781 839.765625 908.574219 844.449219 908.496094 C 849.128906 908.417969 853.808594 908.242188 858.480469 907.964844 C 863.15625 907.691406 867.824219 907.316406 872.480469 906.839844 C 877.140625 906.367188 881.785156 905.792969 886.417969 905.121094 C 891.050781 904.445312 895.667969 903.675781 900.269531 902.804688 C 904.871094 901.9375 909.453125 900.96875 914.011719 899.90625 C 918.570312 898.839844 923.105469 897.679688 927.617188 896.421875 C 932.128906 895.164062 936.609375 893.8125 941.0625 892.363281 C 945.515625 890.914062 949.933594 889.371094 954.320312 887.734375 C 958.707031 886.097656 963.058594 884.367188 967.371094 882.546875 C 971.6875 880.722656 975.957031 878.8125 980.191406 876.808594 C 984.421875 874.800781 988.609375 872.710938 992.753906 870.527344 C 996.894531 868.34375 1000.992188 866.074219 1005.039062 863.71875 C 1009.082031 861.359375 1013.078125 858.917969 1017.019531 856.390625 C 1020.960938 853.863281 1024.851562 851.253906 1028.679688 848.5625 C 1032.511719 845.867188 1036.285156 843.09375 1039.996094 840.242188 C 1043.710938 837.386719 1047.363281 834.457031 1050.949219 831.449219 C 1054.539062 828.4375 1058.0625 825.355469 1061.519531 822.195312 C 1064.976562 819.035156 1068.367188 815.804688 1071.683594 812.503906 C 1074.941406 809.210938 1078.125 805.851562 1081.238281 802.421875 C 1084.355469 798.996094 1087.394531 795.507812 1090.363281 791.953125 C 1093.332031 788.398438 1096.222656 784.785156 1099.039062 781.109375 C 1101.855469 777.433594 1104.59375 773.703125 1107.253906 769.910156 C 1109.914062 766.121094 1112.496094 762.277344 1114.992188 758.378906 C 1117.492188 754.480469 1119.910156 750.53125 1122.242188 746.53125 C 1124.578125 742.53125 1126.824219 738.484375 1128.988281 734.390625 C 1131.152344 730.296875 1133.230469 726.160156 1135.222656 721.980469 C 1137.210938 717.796875 1139.113281 713.578125 1140.929688 709.316406 C 1142.742188 705.054688 1144.464844 700.757812 1146.101562 696.425781 C 1147.734375 692.09375 1149.277344 687.726562 1150.726562 683.328125 C 1152.179688 678.933594 1153.535156 674.507812 1154.800781 670.050781 C 1156.066406 665.597656 1157.238281 661.117188 1158.316406 656.613281 C 1159.394531 652.109375 1160.378906 647.585938 1161.265625 643.039062 C 1162.152344 638.496094 1162.945312 633.933594 1163.644531 629.355469 C 1164.339844 624.777344 1164.941406 620.1875 1165.445312 615.582031 C 1165.949219 610.980469 1166.359375 606.367188 1166.671875 601.746094 C 1166.980469 597.125 1167.195312 592.5 1167.3125 587.871094 C 1167.433594 583.242188 1167.453125 578.609375 1167.375 573.980469 C 1167.300781 569.351562 1167.125 564.722656 1166.855469 560.101562 C 1166.585938 555.476562 1166.21875 550.859375 1165.753906 546.253906 C 1165.292969 541.644531 1164.730469 537.050781 1164.074219 532.464844 C 1163.417969 527.878906 1162.667969 523.3125 1161.820312 518.757812 C 1160.972656 514.207031 1160.03125 509.671875 1158.992188 505.160156 C 1157.953125 500.648438 1156.824219 496.15625 1155.597656 491.691406 C 1154.371094 487.226562 1153.054688 482.785156 1151.640625 478.375 C 1150.230469 473.964844 1148.726562 469.585938 1147.132812 465.238281 C 1145.535156 460.890625 1143.851562 456.578125 1142.074219 452.304688 C 1140.300781 448.027344 1138.433594 443.789062 1136.480469 439.589844 C 1134.527344 435.390625 1132.488281 431.234375 1130.359375 427.121094 C 1128.234375 423.007812 1126.019531 418.941406 1123.722656 414.921875 C 1121.425781 410.902344 1119.042969 406.933594 1116.578125 403.011719 Z M 1081.4375 425.003906 " fill-opacity="1" fill-rule="nonzero"/><path fill="#000000" d="M 560.671875 828.144531 L 590.238281 857.726562 L 898.613281 549.214844 L 925.394531 522.421875 L 1116.734375 330.996094 L 1087.164062 301.414062 L 1056.203125 332.386719 C 1048.808594 325.832031 1041.132812 319.625 1033.175781 313.761719 C 1025.21875 307.902344 1017.011719 302.414062 1008.558594 297.296875 C 1000.101562 292.179688 991.433594 287.453125 982.550781 283.121094 C 973.671875 278.789062 964.609375 274.867188 955.375 271.355469 C 946.136719 267.84375 936.761719 264.757812 927.246094 262.097656 C 917.726562 259.433594 908.113281 257.207031 898.394531 255.414062 C 888.675781 253.625 878.898438 252.277344 869.058594 251.371094 C 859.21875 250.464844 849.355469 250.007812 839.476562 249.996094 C 835.539062 249.980469 831.601562 250.039062 827.667969 250.164062 C 823.730469 250.292969 819.796875 250.492188 815.871094 250.757812 C 811.941406 251.027344 808.019531 251.367188 804.101562 251.777344 C 800.1875 252.1875 796.277344 252.667969 792.378906 253.214844 C 788.480469 253.765625 784.59375 254.386719 780.714844 255.074219 C 776.839844 255.765625 772.976562 256.523438 769.125 257.351562 C 765.277344 258.179688 761.441406 259.078125 757.625 260.046875 C 753.808594 261.011719 750.007812 262.046875 746.230469 263.148438 C 742.449219 264.25 738.6875 265.421875 734.949219 266.660156 C 731.210938 267.898438 727.496094 269.203125 723.804688 270.574219 C 720.113281 271.945312 716.449219 273.378906 712.808594 274.882812 C 709.167969 276.386719 705.558594 277.953125 701.972656 279.585938 C 698.390625 281.21875 694.835938 282.917969 691.316406 284.675781 C 687.792969 286.4375 684.300781 288.261719 680.84375 290.144531 C 677.386719 292.03125 673.964844 293.976562 670.578125 295.988281 C 667.191406 297.996094 663.839844 300.066406 660.527344 302.195312 C 657.214844 304.324219 653.941406 306.511719 650.707031 308.757812 C 647.472656 311.003906 644.277344 313.308594 641.125 315.667969 C 637.972656 318.03125 634.867188 320.449219 631.800781 322.921875 C 628.734375 325.394531 625.714844 327.921875 622.742188 330.503906 C 619.765625 333.082031 616.839844 335.71875 613.960938 338.40625 C 611.078125 341.089844 608.25 343.828125 605.46875 346.617188 C 602.6875 349.40625 599.953125 352.242188 597.273438 355.128906 C 594.59375 358.015625 591.96875 360.949219 589.394531 363.929688 C 586.820312 366.910156 584.300781 369.9375 581.832031 373.007812 C 579.367188 376.082031 576.957031 379.195312 574.605469 382.351562 C 572.25 385.511719 569.953125 388.710938 567.714844 391.949219 C 565.472656 395.191406 563.292969 398.46875 561.171875 401.789062 C 559.050781 405.109375 556.988281 408.464844 554.988281 411.855469 C 552.988281 415.25 551.046875 418.675781 549.171875 422.140625 C 547.292969 425.601562 545.476562 429.097656 543.722656 432.625 C 541.972656 436.152344 540.285156 439.710938 538.660156 443.300781 C 537.035156 446.886719 535.472656 450.503906 533.980469 454.148438 C 532.484375 457.792969 531.054688 461.464844 529.691406 465.160156 C 528.328125 468.855469 527.03125 472.574219 525.800781 476.316406 C 524.570312 480.058594 523.410156 483.824219 522.316406 487.605469 C 521.21875 491.390625 520.195312 495.195312 519.234375 499.015625 C 518.277344 502.835938 517.386719 506.671875 516.566406 510.527344 C 515.746094 514.378906 514.996094 518.246094 514.3125 522.125 C 513.632812 526.003906 513.019531 529.894531 512.476562 533.796875 C 511.9375 537.699219 511.464844 541.609375 511.0625 545.527344 C 510.660156 549.449219 510.328125 553.371094 510.070312 557.304688 C 509.808594 561.234375 509.617188 565.167969 509.5 569.105469 C 509.378906 573.042969 509.328125 576.980469 509.351562 580.921875 C 509.375 584.859375 509.464844 588.800781 509.628906 592.734375 C 509.792969 596.671875 510.027344 600.601562 510.328125 604.53125 C 510.632812 608.457031 511.007812 612.378906 511.453125 616.292969 C 511.898438 620.207031 512.414062 624.113281 513 628.007812 C 513.582031 631.902344 514.238281 635.789062 514.964844 639.660156 C 515.6875 643.53125 516.480469 647.390625 517.34375 651.234375 C 518.207031 655.078125 519.140625 658.90625 520.140625 662.714844 C 521.140625 666.523438 522.207031 670.316406 523.34375 674.085938 C 524.480469 677.859375 525.683594 681.609375 526.957031 685.339844 C 528.226562 689.066406 529.566406 692.769531 530.96875 696.453125 C 532.371094 700.132812 533.84375 703.785156 535.378906 707.414062 C 536.914062 711.042969 538.511719 714.640625 540.175781 718.210938 C 541.839844 721.78125 543.570312 725.320312 545.359375 728.828125 C 547.152344 732.335938 549.007812 735.8125 550.921875 739.253906 C 552.839844 742.695312 554.816406 746.101562 556.855469 749.472656 C 558.890625 752.84375 560.992188 756.175781 563.148438 759.46875 C 565.304688 762.765625 567.523438 766.019531 569.796875 769.234375 C 572.074219 772.453125 574.40625 775.625 576.792969 778.757812 C 579.183594 781.886719 581.625 784.976562 584.125 788.019531 C 586.625 791.0625 589.179688 794.0625 591.785156 797.015625 Z M 551.226562 579.570312 C 551.222656 574.859375 551.335938 570.15625 551.566406 565.453125 C 551.792969 560.75 552.136719 556.054688 552.597656 551.367188 C 553.054688 546.683594 553.628906 542.011719 554.316406 537.351562 C 555.007812 532.695312 555.808594 528.058594 556.722656 523.4375 C 557.640625 518.820312 558.667969 514.226562 559.8125 509.660156 C 560.953125 505.089844 562.203125 500.554688 563.570312 496.046875 C 564.933594 491.542969 566.40625 487.070312 567.992188 482.636719 C 569.574219 478.203125 571.265625 473.8125 573.066406 469.460938 C 574.863281 465.109375 576.769531 460.804688 578.78125 456.550781 C 580.789062 452.292969 582.90625 448.085938 585.121094 443.933594 C 587.339844 439.78125 589.65625 435.683594 592.074219 431.644531 C 594.492188 427.605469 597.007812 423.628906 599.621094 419.710938 C 602.234375 415.796875 604.941406 411.945312 607.746094 408.164062 C 610.546875 404.378906 613.441406 400.667969 616.425781 397.027344 C 619.410156 393.386719 622.480469 389.824219 625.640625 386.332031 C 628.800781 382.84375 632.042969 379.433594 635.371094 376.101562 C 638.699219 372.773438 642.105469 369.527344 645.59375 366.363281 C 649.078125 363.199219 652.640625 360.125 656.277344 357.136719 C 659.914062 354.148438 663.625 351.253906 667.402344 348.445312 C 671.183594 345.640625 675.027344 342.929688 678.941406 340.3125 C 682.855469 337.695312 686.828125 335.175781 690.863281 332.757812 C 694.902344 330.335938 698.996094 328.015625 703.144531 325.792969 C 707.292969 323.574219 711.496094 321.457031 715.75 319.441406 C 720.003906 317.429688 724.304688 315.519531 728.65625 313.71875 C 733.003906 311.914062 737.390625 310.222656 741.824219 308.632812 C 746.253906 307.046875 750.722656 305.570312 755.226562 304.203125 C 759.726562 302.835938 764.261719 301.582031 768.828125 300.4375 C 773.394531 299.292969 777.984375 298.261719 782.597656 297.339844 C 787.214844 296.421875 791.851562 295.617188 796.507812 294.925781 C 801.160156 294.234375 805.832031 293.660156 810.515625 293.195312 C 815.199219 292.734375 819.890625 292.390625 824.589844 292.15625 C 829.292969 291.925781 833.996094 291.8125 838.703125 291.8125 C 847.242188 291.796875 855.765625 292.164062 864.273438 292.914062 C 872.78125 293.667969 881.234375 294.796875 889.640625 296.308594 C 898.046875 297.820312 906.367188 299.707031 914.601562 301.964844 C 922.839844 304.226562 930.957031 306.851562 938.957031 309.839844 C 946.957031 312.828125 954.808594 316.171875 962.507812 319.863281 C 970.207031 323.558594 977.726562 327.59375 985.066406 331.960938 C 992.402344 336.332031 999.53125 341.023438 1006.445312 346.035156 C 1013.363281 351.046875 1020.042969 356.359375 1026.480469 361.96875 L 909.757812 478.746094 C 909.757812 476.730469 909.757812 475.027344 909.757812 473.015625 C 909.753906 470.046875 909.582031 467.089844 909.246094 464.144531 C 908.90625 461.195312 908.40625 458.273438 907.742188 455.382812 C 907.082031 452.492188 906.257812 449.644531 905.273438 446.84375 C 904.292969 444.046875 903.15625 441.308594 901.867188 438.636719 C 900.578125 435.964844 899.144531 433.375 897.566406 430.863281 C 895.988281 428.351562 894.273438 425.933594 892.421875 423.617188 C 890.574219 421.296875 888.601562 419.085938 886.503906 416.988281 C 884.40625 414.890625 882.199219 412.914062 879.878906 411.066406 L 893.039062 358.097656 C 893.203125 357.429688 893.332031 356.757812 893.433594 356.078125 C 893.53125 355.398438 893.59375 354.714844 893.625 354.03125 C 893.65625 353.34375 893.652344 352.65625 893.617188 351.972656 C 893.582031 351.285156 893.511719 350.605469 893.40625 349.925781 C 893.304688 349.246094 893.167969 348.574219 893 347.910156 C 892.828125 347.242188 892.628906 346.589844 892.394531 345.941406 C 892.160156 345.296875 891.894531 344.664062 891.601562 344.042969 C 891.304688 343.425781 890.980469 342.820312 890.625 342.234375 C 890.269531 341.644531 889.886719 341.078125 889.476562 340.527344 C 889.0625 339.976562 888.628906 339.449219 888.164062 338.941406 C 887.703125 338.433594 887.214844 337.949219 886.707031 337.492188 C 886.195312 337.03125 885.664062 336.597656 885.113281 336.191406 C 884.558594 335.785156 883.988281 335.40625 883.398438 335.054688 C 882.808594 334.703125 882.203125 334.382812 881.582031 334.089844 C 880.960938 333.796875 880.324219 333.539062 879.679688 333.308594 C 879.03125 333.078125 878.375 332.882812 877.707031 332.71875 C 877.042969 332.554688 876.371094 332.421875 875.691406 332.324219 C 875.011719 332.222656 874.328125 332.160156 873.644531 332.128906 C 872.957031 332.097656 872.273438 332.097656 871.585938 332.132812 C 870.902344 332.167969 870.21875 332.238281 869.539062 332.339844 C 868.863281 332.445312 868.1875 332.578125 867.523438 332.75 C 866.859375 332.917969 866.203125 333.117188 865.558594 333.351562 C 864.914062 333.585938 864.28125 333.847656 863.660156 334.144531 C 863.039062 334.4375 862.4375 334.765625 861.847656 335.117188 C 861.261719 335.472656 860.691406 335.855469 860.140625 336.265625 C 859.589844 336.675781 859.0625 337.113281 858.554688 337.574219 C 858.046875 338.039062 857.566406 338.523438 857.105469 339.035156 C 856.644531 339.542969 856.210938 340.074219 855.804688 340.628906 C 855.398438 341.179688 855.015625 341.75 854.664062 342.339844 C 854.3125 342.929688 853.992188 343.535156 853.699219 344.15625 C 853.410156 344.777344 853.148438 345.414062 852.917969 346.058594 C 852.6875 346.707031 852.492188 347.363281 852.324219 348.03125 L 841.023438 394.492188 C 837.355469 393.667969 833.640625 393.253906 829.878906 393.253906 C 826.117188 393.253906 822.402344 393.667969 818.730469 394.492188 L 807.429688 348.03125 C 807.253906 347.378906 807.046875 346.734375 806.808594 346.105469 C 806.570312 345.472656 806.300781 344.851562 806.003906 344.246094 C 805.707031 343.640625 805.378906 343.050781 805.023438 342.472656 C 804.667969 341.898438 804.285156 341.34375 803.875 340.804688 C 803.464844 340.269531 803.03125 339.753906 802.570312 339.257812 C 802.113281 338.761719 801.628906 338.289062 801.125 337.84375 C 800.621094 337.394531 800.09375 336.96875 799.546875 336.574219 C 799 336.175781 798.4375 335.804688 797.855469 335.460938 C 797.273438 335.121094 796.675781 334.804688 796.0625 334.519531 C 795.449219 334.238281 794.824219 333.980469 794.1875 333.757812 C 793.550781 333.535156 792.902344 333.339844 792.25 333.179688 C 791.59375 333.019531 790.929688 332.886719 790.261719 332.792969 C 789.59375 332.695312 788.921875 332.628906 788.246094 332.597656 C 787.574219 332.566406 786.898438 332.566406 786.222656 332.597656 C 785.546875 332.632812 784.875 332.699219 784.207031 332.796875 C 783.539062 332.894531 782.878906 333.027344 782.222656 333.1875 C 781.566406 333.351562 780.921875 333.546875 780.285156 333.769531 C 779.648438 333.996094 779.023438 334.253906 778.410156 334.539062 C 777.800781 334.824219 777.203125 335.140625 776.621094 335.484375 C 776.039062 335.828125 775.476562 336.199219 774.929688 336.597656 C 774.382812 336.996094 773.859375 337.417969 773.355469 337.867188 C 772.851562 338.316406 772.371094 338.789062 771.910156 339.285156 C 771.453125 339.78125 771.019531 340.300781 770.609375 340.839844 C 770.203125 341.375 769.820312 341.933594 769.464844 342.507812 C 769.109375 343.085938 768.785156 343.675781 768.488281 344.28125 C 768.191406 344.890625 767.921875 345.507812 767.6875 346.140625 C 767.449219 346.773438 767.242188 347.417969 767.070312 348.070312 C 766.894531 348.722656 766.75 349.382812 766.640625 350.046875 C 766.527344 350.714844 766.449219 351.386719 766.40625 352.058594 C 766.359375 352.734375 766.34375 353.410156 766.363281 354.085938 C 766.382812 354.761719 766.4375 355.433594 766.519531 356.101562 C 766.605469 356.773438 766.722656 357.4375 766.871094 358.097656 L 779.875 411.066406 C 777.558594 412.914062 775.351562 414.890625 773.253906 416.988281 C 771.15625 419.085938 769.183594 421.296875 767.332031 423.617188 C 765.484375 425.933594 763.769531 428.351562 762.191406 430.863281 C 760.609375 433.375 759.175781 435.964844 757.886719 438.636719 C 756.601562 441.308594 755.464844 444.046875 754.480469 446.84375 C 753.5 449.644531 752.675781 452.492188 752.011719 455.382812 C 751.347656 458.273438 750.847656 461.195312 750.511719 464.144531 C 750.175781 467.089844 750.003906 470.046875 750 473.015625 C 750.039062 477.867188 750.554688 482.667969 751.546875 487.417969 C 751.867188 489.144531 752.28125 490.847656 752.785156 492.53125 C 753.316406 494.671875 753.9375 496.785156 754.644531 498.875 C 755.351562 500.964844 756.144531 503.019531 757.023438 505.042969 C 757.902344 507.066406 758.863281 509.050781 759.90625 510.996094 C 760.949219 512.9375 762.074219 514.835938 763.273438 516.683594 C 764.476562 518.535156 765.75 520.332031 767.101562 522.078125 C 768.453125 523.820312 769.871094 525.503906 771.363281 527.132812 C 772.851562 528.757812 774.40625 530.316406 776.027344 531.816406 C 777.648438 533.3125 779.328125 534.738281 781.066406 536.09375 C 782.804688 537.453125 784.597656 538.734375 786.441406 539.941406 C 788.289062 541.148438 790.179688 542.277344 792.121094 543.328125 C 794.058594 544.378906 796.039062 545.347656 798.058594 546.234375 C 800.078125 547.117188 802.128906 547.917969 804.214844 548.632812 C 806.300781 549.347656 808.414062 549.976562 810.550781 550.515625 C 812.691406 551.054688 814.847656 551.503906 817.023438 551.863281 C 819.199219 552.222656 821.386719 552.492188 823.582031 552.671875 C 825.78125 552.847656 827.984375 552.9375 830.1875 552.929688 L 835.605469 552.929688 L 815.945312 573.375 C 813.789062 573.050781 811.648438 572.65625 809.515625 572.195312 C 807.386719 571.730469 805.273438 571.199219 803.175781 570.601562 C 801.082031 570 799.007812 569.332031 796.953125 568.597656 C 794.902344 567.863281 792.875 567.0625 790.875 566.195312 C 788.875 565.328125 786.902344 564.398438 784.960938 563.40625 C 783.023438 562.410156 781.117188 561.355469 779.242188 560.238281 C 777.371094 559.117188 775.539062 557.941406 773.742188 556.703125 C 771.949219 555.46875 770.195312 554.171875 768.484375 552.824219 C 766.769531 551.472656 765.105469 550.066406 763.484375 548.609375 C 761.863281 547.148438 760.292969 545.636719 758.769531 544.078125 C 757.25 542.515625 755.777344 540.90625 754.359375 539.25 C 752.941406 537.59375 751.578125 535.894531 750.269531 534.148438 C 748.964844 532.402344 747.714844 530.617188 746.523438 528.792969 C 745.328125 526.964844 744.199219 525.101562 743.128906 523.203125 C 742.054688 521.304688 741.046875 519.371094 740.101562 517.40625 C 739.15625 515.441406 738.273438 513.445312 737.457031 511.425781 C 733.972656 514.496094 730.722656 517.800781 727.707031 521.335938 C 723.019531 526.894531 718.789062 532.78125 715.011719 538.992188 L 693.804688 536.050781 L 673.832031 481.84375 C 673.582031 481.203125 673.296875 480.578125 672.980469 479.964844 C 672.667969 479.355469 672.324219 478.757812 671.949219 478.179688 C 671.578125 477.601562 671.175781 477.046875 670.75 476.507812 C 670.320312 475.96875 669.867188 475.453125 669.390625 474.957031 C 668.910156 474.464844 668.410156 473.996094 667.882812 473.550781 C 667.359375 473.105469 666.8125 472.6875 666.25 472.296875 C 665.683594 471.90625 665.097656 471.542969 664.496094 471.210938 C 663.894531 470.875 663.28125 470.574219 662.648438 470.300781 C 662.019531 470.027344 661.375 469.785156 660.71875 469.574219 C 660.066406 469.367188 659.402344 469.1875 658.730469 469.042969 C 658.054688 468.898438 657.378906 468.789062 656.695312 468.710938 C 656.011719 468.632812 655.328125 468.589844 654.640625 468.578125 C 653.953125 468.566406 653.265625 468.589844 652.578125 468.648438 C 651.894531 468.707031 651.214844 468.796875 650.539062 468.921875 C 649.859375 469.042969 649.191406 469.199219 648.53125 469.390625 C 647.871094 469.582031 647.21875 469.800781 646.582031 470.054688 C 645.941406 470.308594 645.316406 470.59375 644.707031 470.910156 C 644.09375 471.226562 643.5 471.570312 642.921875 471.941406 C 642.34375 472.316406 641.789062 472.71875 641.25 473.144531 C 640.710938 473.574219 640.195312 474.027344 639.703125 474.507812 C 639.210938 474.988281 638.742188 475.488281 638.296875 476.015625 C 637.851562 476.539062 637.433594 477.085938 637.046875 477.652344 C 636.65625 478.21875 636.292969 478.804688 635.960938 479.40625 C 635.628906 480.007812 635.324219 480.625 635.050781 481.253906 C 634.78125 481.886719 634.539062 482.53125 634.328125 483.1875 C 634.121094 483.839844 633.945312 484.503906 633.800781 485.179688 C 633.65625 485.851562 633.546875 486.53125 633.46875 487.214844 C 633.390625 487.898438 633.347656 488.582031 633.339844 489.269531 C 633.328125 489.957031 633.351562 490.644531 633.410156 491.332031 C 633.46875 492.015625 633.558594 492.695312 633.683594 493.375 C 633.808594 494.050781 633.964844 494.71875 634.15625 495.378906 C 634.347656 496.042969 634.566406 496.691406 634.824219 497.332031 L 663.617188 573.375 L 697.054688 578.019531 C 693.976562 588.761719 692.066406 599.707031 691.328125 610.855469 L 660.367188 610.855469 L 652.933594 599.703125 C 652.550781 599.136719 652.140625 598.585938 651.707031 598.058594 C 651.269531 597.53125 650.808594 597.027344 650.320312 596.542969 C 649.835938 596.0625 649.328125 595.605469 648.796875 595.171875 C 648.265625 594.738281 647.714844 594.332031 647.140625 593.957031 C 646.570312 593.578125 645.984375 593.226562 645.378906 592.90625 C 644.773438 592.585938 644.152344 592.296875 643.519531 592.035156 C 642.886719 591.777344 642.242188 591.550781 641.585938 591.351562 C 640.929688 591.15625 640.265625 590.992188 639.59375 590.863281 C 638.917969 590.730469 638.242188 590.632812 637.5625 590.570312 C 636.878906 590.503906 636.195312 590.472656 635.511719 590.476562 C 634.824219 590.480469 634.144531 590.515625 633.460938 590.585938 C 632.78125 590.65625 632.105469 590.757812 631.433594 590.894531 C 630.761719 591.03125 630.097656 591.203125 629.445312 591.402344 C 628.789062 591.605469 628.148438 591.835938 627.515625 592.101562 C 626.882812 592.367188 626.265625 592.664062 625.664062 592.988281 C 625.0625 593.3125 624.476562 593.667969 623.910156 594.050781 C 623.339844 594.433594 622.792969 594.84375 622.265625 595.28125 C 621.738281 595.71875 621.234375 596.179688 620.75 596.664062 C 620.269531 597.152344 619.8125 597.660156 619.378906 598.191406 C 618.945312 598.722656 618.542969 599.273438 618.164062 599.84375 C 617.785156 600.417969 617.4375 601.003906 617.117188 601.609375 C 616.796875 602.214844 616.503906 602.835938 616.246094 603.46875 C 615.984375 604.105469 615.757812 604.75 615.5625 605.40625 C 615.367188 606.0625 615.203125 606.726562 615.070312 607.398438 C 614.941406 608.070312 614.84375 608.75 614.777344 609.429688 C 614.714844 610.113281 614.683594 610.796875 614.6875 611.480469 C 614.691406 612.167969 614.726562 612.851562 614.796875 613.53125 C 614.867188 614.214844 614.96875 614.890625 615.105469 615.5625 C 615.242188 616.234375 615.410156 616.894531 615.613281 617.550781 C 615.8125 618.207031 616.046875 618.847656 616.3125 619.480469 C 616.574219 620.113281 616.871094 620.730469 617.195312 621.332031 C 617.519531 621.9375 617.875 622.519531 618.257812 623.089844 L 638.226562 652.671875 L 692.253906 652.671875 C 693.734375 664.550781 696.519531 676.113281 700.613281 687.363281 L 620.734375 767.277344 C 615.15625 760.828125 609.878906 754.144531 604.902344 747.222656 C 599.925781 740.300781 595.265625 733.167969 590.929688 725.828125 C 586.589844 718.488281 582.585938 710.96875 578.921875 703.265625 C 575.257812 695.566406 571.945312 687.71875 568.984375 679.722656 C 566.023438 671.726562 563.425781 663.613281 561.191406 655.382812 C 558.957031 647.15625 557.097656 638.839844 555.609375 630.445312 C 554.121094 622.046875 553.007812 613.601562 552.277344 605.105469 C 551.546875 596.609375 551.195312 588.097656 551.226562 579.570312 Z M 551.226562 579.570312 " fill-opacity="1" fill-rule="nonzero"/></svg>